<svg xmlns="http://www.w3.org/2000/svg" viewBox="0 0 142.2 161.2"><defs><style>.cls-1{fill:#e46262;}.cls-2{fill:#fff;}.cls-3{fill:none;stroke:#000;stroke-miterlimit:10;stroke-width:0.2px;}</style></defs><g id="Layer_2" data-name="Layer 2"><g id="Layer_5" data-name="Layer 5"><polygon class="cls-1" points="142.1 79.1 142.1 161.1 77.1 161.1 77.1 104.86 95.1 97.62 95.1 143.1 124.1 143.1 124.1 86.3 142.1 79.1"/><polyline class="cls-1" points="65.1 105.1 65.1 143.1 65.1 153.27 65.1 161.1 48.02 161.1 47.1 160.05 32.22 143.1 18.1 127.02 18.1 143.1 18.1 161.1 0.1 161.1 0.1 143.1 0.1 79.24 18.1 99.74 47.1 132.77 47.1 98.1"/><path class="cls-2" d="M6.1,65.09l65,26,65-27v-12l-65,27-65-28Z"/><rect class="cls-2" x="33.61" y="23.51" width="4.99" height="50.68" rx="2.34" transform="translate(-23.35 61.31) rotate(-65.37)"/><rect class="cls-2" x="44.61" y="9.7" width="4.99" height="52.44" rx="2.38" transform="translate(-11.6 43.82) rotate(-45)"/><rect class="cls-2" x="68.1" y="0.1" width="5" height="50" rx="2.32"/><path class="cls-2" d="M127.39,41.53,85.56,60.71a2.33,2.33,0,0,1-3.09-1.15l-.13-.28a2.33,2.33,0,0,1,1.15-3.1L125.31,37a2.34,2.34,0,0,1,3.1,1.15l.13.28A2.34,2.34,0,0,1,127.39,41.53Z"/><rect class="cls-2" x="68.22" y="33.42" width="52.44" height="4.99" rx="2.38" transform="translate(2.27 77.3) rotate(-45)"/><path class="cls-2" d="M81.6,62.7,71,67.59,60.4,62.7a12.25,12.25,0,0,1,21.2,0Z"/><polygon class="cls-3" points="142.1 79.1 142.1 161.1 77.1 161.1 77.1 104.86 95.1 97.62 95.1 143.1 124.1 143.1 124.1 86.3 142.1 79.1"/><polyline class="cls-3" points="65.1 105.1 65.1 143.1 65.1 153.27 65.1 161.1 48.02 161.1 47.1 160.05 32.22 143.1 18.1 127.02 18.1 143.1 18.1 161.1 0.1 161.1 0.1 143.1 0.1 79.24 18.1 99.74 47.1 132.77 47.1 98.1"/><path class="cls-3" d="M6.1,65.09l65,26,65-27v-12l-65,27-65-28Z"/><rect class="cls-3" x="33.61" y="23.51" width="4.99" height="50.68" rx="2.34" transform="translate(-23.35 61.31) rotate(-65.37)"/><rect class="cls-3" x="44.61" y="9.7" width="4.99" height="52.44" rx="2.38" transform="translate(-11.6 43.82) rotate(-45)"/><rect class="cls-3" x="68.1" y="0.1" width="5" height="50" rx="2.32"/><path class="cls-3" d="M127.39,41.53,85.56,60.71a2.33,2.33,0,0,1-3.09-1.15l-.13-.28a2.33,2.33,0,0,1,1.15-3.1L125.31,37a2.34,2.34,0,0,1,3.1,1.15l.13.28A2.34,2.34,0,0,1,127.39,41.53Z"/><rect class="cls-3" x="68.22" y="33.42" width="52.44" height="4.99" rx="2.38" transform="translate(2.27 77.3) rotate(-45)"/><path class="cls-3" d="M81.6,62.7,71,67.59,60.4,62.7a12.25,12.25,0,0,1,21.2,0Z"/></g></g></svg>