<svg xmlns="http://www.w3.org/2000/svg" viewBox="0 0 142.2 164.2"><defs><style>.cls-1{fill:#e46262;}.cls-2{fill:#e6e6e6;}.cls-3{fill:none;stroke:#000;stroke-miterlimit:10;stroke-width:0.2px;}</style></defs><g id="Layer_2" data-name="Layer 2"><g id="Layer_5" data-name="Layer 5"><polygon class="cls-1" points="142.1 82.1 142.1 164.1 77.1 164.1 77.1 107.86 95.1 100.62 95.1 146.1 124.1 146.1 124.1 89.3 142.1 82.1"/><polyline class="cls-1" points="65.1 108.1 65.1 146.1 65.1 156.27 65.1 164.1 48.02 164.1 47.1 163.05 32.22 146.1 18.1 130.02 18.1 146.1 18.1 164.1 0.1 164.1 0.1 146.1 0.1 82.24 18.1 102.74 47.1 135.77 47.1 101.1"/><path class="cls-2" d="M6.1,68.09l65,26,65-27v-12l-65,27-65-28Z"/><rect class="cls-2" x="29.61" y="24.51" width="4.99" height="50.68" rx="2.34" transform="translate(-26.6 58.26) rotate(-65.37)"/><rect class="cls-2" x="42.61" y="10.7" width="4.99" height="52.44" rx="2.38" transform="translate(-12.89 42.7) rotate(-45)"/><rect class="cls-2" x="68.1" y="0.1" width="5" height="50" rx="2.32"/><path class="cls-2" d="M131.39,42.53,89.56,61.71a2.33,2.33,0,0,1-3.09-1.15l-.13-.28a2.33,2.33,0,0,1,1.15-3.1L129.31,38a2.34,2.34,0,0,1,3.1,1.15l.13.28A2.34,2.34,0,0,1,131.39,42.53Z"/><rect class="cls-2" x="70.22" y="34.42" width="52.44" height="4.99" rx="2.38" transform="translate(2.14 79.01) rotate(-45)"/><path class="cls-2" d="M81.6,65.7,71,70.59,60.4,65.7a12.25,12.25,0,0,1,21.2,0Z"/><polygon class="cls-3" points="142.1 82.1 142.1 164.1 77.1 164.1 77.1 107.86 95.1 100.62 95.1 146.1 124.1 146.1 124.1 89.3 142.1 82.1"/><polyline class="cls-3" points="65.1 108.1 65.1 146.1 65.1 156.27 65.1 164.1 48.02 164.1 47.1 163.05 32.22 146.1 18.1 130.02 18.1 146.1 18.1 164.1 0.1 164.1 0.1 146.1 0.1 82.24 18.1 102.74 47.1 135.77 47.1 101.1"/><path class="cls-3" d="M6.1,68.09l65,26,65-27v-12l-65,27-65-28Z"/><rect class="cls-3" x="29.61" y="24.51" width="4.99" height="50.68" rx="2.34" transform="translate(-26.6 58.26) rotate(-65.37)"/><rect class="cls-3" x="42.61" y="10.7" width="4.99" height="52.44" rx="2.38" transform="translate(-12.89 42.7) rotate(-45)"/><rect class="cls-3" x="68.1" y="0.1" width="5" height="50" rx="2.32"/><path class="cls-3" d="M131.39,42.53,89.56,61.71a2.33,2.33,0,0,1-3.09-1.15l-.13-.28a2.33,2.33,0,0,1,1.15-3.1L129.31,38a2.34,2.34,0,0,1,3.1,1.15l.13.28A2.34,2.34,0,0,1,131.39,42.53Z"/><rect class="cls-3" x="70.22" y="34.42" width="52.44" height="4.99" rx="2.38" transform="translate(2.14 79.01) rotate(-45)"/><path class="cls-3" d="M81.6,65.7,71,70.59,60.4,65.7a12.25,12.25,0,0,1,21.2,0Z"/></g></g></svg>