<svg xmlns="http://www.w3.org/2000/svg" viewBox="0 0 142.2 154.2"><defs><style>.cls-1{fill:#fff;}.cls-2{fill:none;stroke:#000;stroke-miterlimit:10;stroke-width:0.2px;}</style></defs><g id="Layer_2" data-name="Layer 2"><g id="Layer_5" data-name="Layer 5"><polygon class="cls-1" points="142.1 72.1 142.1 154.1 77.1 154.1 77.1 97.86 95.1 90.62 95.1 136.1 124.1 136.1 124.1 79.3 142.1 72.1"/><polyline class="cls-1" points="65.1 98.1 65.1 136.1 65.1 146.27 65.1 154.1 48.02 154.1 47.1 153.05 32.22 136.1 18.1 120.02 18.1 136.1 18.1 154.1 0.1 154.1 0.1 136.1 0.1 72.24 18.1 92.74 47.1 125.77 47.1 91.1"/><path class="cls-1" d="M6.1,58.09l65,26,65-27v-12l-65,27-65-28Z"/><rect class="cls-1" x="33.61" y="23.51" width="4.99" height="50.68" rx="2.34" transform="translate(-23.35 61.31) rotate(-65.37)"/><rect class="cls-1" x="44.61" y="9.7" width="4.99" height="52.44" rx="2.38" transform="translate(-11.6 43.82) rotate(-45)"/><rect class="cls-1" x="68.1" y="0.1" width="5" height="50" rx="2.32"/><path class="cls-1" d="M127.39,41.53,85.56,60.71a2.33,2.33,0,0,1-3.09-1.15l-.13-.28a2.33,2.33,0,0,1,1.15-3.1L125.31,37a2.34,2.34,0,0,1,3.1,1.15l.13.28A2.34,2.34,0,0,1,127.39,41.53Z"/><rect class="cls-1" x="68.22" y="33.42" width="52.44" height="4.99" rx="2.38" transform="translate(2.27 77.3) rotate(-45)"/><polyline class="cls-1" points="56.42 60.09 56.44 60.1 56.1 60.1"/><path class="cls-1" d="M81.6,62.7,71,67.59,60.4,62.7a12.25,12.25,0,0,1,21.2,0Z"/><polygon class="cls-2" points="142.1 72.1 142.1 154.1 77.1 154.1 77.1 97.86 95.1 90.62 95.1 136.1 124.1 136.1 124.1 79.3 142.1 72.1"/><polyline class="cls-2" points="65.1 98.1 65.1 136.1 65.1 146.27 65.1 154.1 48.02 154.1 47.1 153.05 32.22 136.1 18.1 120.02 18.1 136.1 18.1 154.1 0.1 154.1 0.1 136.1 0.1 72.24 18.1 92.74 47.1 125.77 47.1 91.1"/><path class="cls-2" d="M6.1,58.09l65,26,65-27v-12l-65,27-65-28Z"/><rect class="cls-2" x="33.61" y="23.51" width="4.99" height="50.68" rx="2.34" transform="translate(-23.35 61.31) rotate(-65.37)"/><rect class="cls-2" x="44.61" y="9.7" width="4.99" height="52.44" rx="2.38" transform="translate(-11.6 43.82) rotate(-45)"/><rect class="cls-2" x="68.1" y="0.1" width="5" height="50" rx="2.32"/><path class="cls-2" d="M127.39,41.53,85.56,60.71a2.33,2.33,0,0,1-3.09-1.15l-.13-.28a2.33,2.33,0,0,1,1.15-3.1L125.31,37a2.34,2.34,0,0,1,3.1,1.15l.13.28A2.34,2.34,0,0,1,127.39,41.53Z"/><rect class="cls-2" x="68.22" y="33.42" width="52.44" height="4.99" rx="2.38" transform="translate(2.27 77.3) rotate(-45)"/><polyline class="cls-2" points="56.42 60.09 56.44 60.1 56.1 60.1"/><path class="cls-2" d="M81.6,62.7,71,67.59,60.4,62.7a12.25,12.25,0,0,1,21.2,0Z"/></g></g></svg>